<mxfile host="app.diagrams.net" modified="2024-07-14T08:27:47.355Z" agent="Mozilla/5.0 (Macintosh; Intel Mac OS X 10_15_7) AppleWebKit/605.1.15 (KHTML, like Gecko) Version/17.5 Safari/605.1.15" etag="EGhp1RhMTYQ5MCpUKiap" version="24.6.5" type="device">
  <diagram name="Page-1" id="uHuE6cg2GW2eRnbbnOSD">
    <mxGraphModel dx="1194" dy="747" grid="1" gridSize="10" guides="1" tooltips="1" connect="1" arrows="1" fold="1" page="1" pageScale="1" pageWidth="827" pageHeight="1169" math="0" shadow="0">
      <root>
        <mxCell id="0" />
        <mxCell id="1" parent="0" />
        <mxCell id="IFULMocBADq7xV75yjAN-5" value="" style="edgeStyle=orthogonalEdgeStyle;rounded=0;orthogonalLoop=1;jettySize=auto;html=1;strokeWidth=2;" edge="1" parent="1" source="kM4pwx-7cxXYW25hb45I-1" target="kM4pwx-7cxXYW25hb45I-4">
          <mxGeometry relative="1" as="geometry" />
        </mxCell>
        <mxCell id="kM4pwx-7cxXYW25hb45I-1" value="&lt;font style=&quot;font-size: 18px;&quot;&gt;MuseCoco&lt;/font&gt;&lt;div&gt;&lt;font style=&quot;font-size: 18px;&quot;&gt;English template&lt;/font&gt;&lt;/div&gt;" style="rounded=0;whiteSpace=wrap;html=1;" parent="1" vertex="1">
          <mxGeometry x="120" y="320" width="170" height="70" as="geometry" />
        </mxCell>
        <mxCell id="IFULMocBADq7xV75yjAN-6" value="" style="edgeStyle=orthogonalEdgeStyle;rounded=0;orthogonalLoop=1;jettySize=auto;html=1;strokeWidth=2;" edge="1" parent="1" source="kM4pwx-7cxXYW25hb45I-4" target="kM4pwx-7cxXYW25hb45I-6">
          <mxGeometry relative="1" as="geometry" />
        </mxCell>
        <mxCell id="kM4pwx-7cxXYW25hb45I-4" value="&lt;font size=&quot;4&quot;&gt;&quot;Noise Injection&quot;&lt;/font&gt;" style="rounded=0;whiteSpace=wrap;html=1;" parent="1" vertex="1">
          <mxGeometry x="120" y="430" width="170" height="70" as="geometry" />
        </mxCell>
        <mxCell id="IFULMocBADq7xV75yjAN-8" value="" style="edgeStyle=orthogonalEdgeStyle;rounded=0;orthogonalLoop=1;jettySize=auto;html=1;strokeWidth=2;" edge="1" parent="1" source="kM4pwx-7cxXYW25hb45I-6" target="kM4pwx-7cxXYW25hb45I-7">
          <mxGeometry relative="1" as="geometry" />
        </mxCell>
        <mxCell id="kM4pwx-7cxXYW25hb45I-6" value="&lt;div&gt;&lt;font size=&quot;4&quot;&gt;&lt;b&gt;GOOGLETRANSLATE&lt;/b&gt;&lt;/font&gt;&lt;/div&gt;&lt;div&gt;&lt;font size=&quot;4&quot;&gt;(a function&amp;nbsp;&lt;/font&gt;&lt;font size=&quot;4&quot;&gt;in&amp;nbsp;&lt;/font&gt;&lt;span style=&quot;font-size: large;&quot;&gt;Google Sheets)&lt;/span&gt;&lt;/div&gt;" style="rounded=0;whiteSpace=wrap;html=1;" parent="1" vertex="1">
          <mxGeometry x="75" y="540" width="260" height="70" as="geometry" />
        </mxCell>
        <mxCell id="IFULMocBADq7xV75yjAN-9" value="" style="edgeStyle=orthogonalEdgeStyle;rounded=0;orthogonalLoop=1;jettySize=auto;html=1;strokeWidth=2;" edge="1" parent="1" source="kM4pwx-7cxXYW25hb45I-7" target="kM4pwx-7cxXYW25hb45I-8">
          <mxGeometry relative="1" as="geometry" />
        </mxCell>
        <mxCell id="kM4pwx-7cxXYW25hb45I-7" value="&lt;font size=&quot;4&quot;&gt;&quot;De-noising&quot;&lt;/font&gt;" style="rounded=0;whiteSpace=wrap;html=1;" parent="1" vertex="1">
          <mxGeometry x="120" y="650" width="170" height="70" as="geometry" />
        </mxCell>
        <mxCell id="kM4pwx-7cxXYW25hb45I-8" value="&lt;div&gt;&lt;font style=&quot;font-size: 18px;&quot;&gt;Vietnamese&lt;/font&gt;&lt;/div&gt;&lt;div&gt;&lt;font style=&quot;font-size: 18px;&quot;&gt;template&lt;/font&gt;&lt;/div&gt;" style="rounded=0;whiteSpace=wrap;html=1;" parent="1" vertex="1">
          <mxGeometry x="120" y="760" width="170" height="70" as="geometry" />
        </mxCell>
        <mxCell id="IFULMocBADq7xV75yjAN-1" value="&lt;span style=&quot;color: rgb(25, 134, 57); font-family: monospace, monospace; caret-color: rgb(31, 31, 31); font-size: 16px; letter-spacing: 0.08px;&quot;&gt;&quot;A track written in &lt;/span&gt;&lt;span style=&quot;font-family: monospace, monospace; caret-color: rgb(31, 31, 31); font-size: 16px; letter-spacing: 0.08px;&quot;&gt;&lt;font color=&quot;#ff001c&quot;&gt;[KEY] key&lt;/font&gt;&lt;/span&gt;&lt;span style=&quot;color: rgb(25, 134, 57); font-family: monospace, monospace; caret-color: rgb(31, 31, 31); font-size: 16px; letter-spacing: 0.08px;&quot;&gt;.&quot;&lt;/span&gt;" style="rounded=0;whiteSpace=wrap;html=1;align=center;verticalAlign=middle;dashed=1;strokeWidth=1;" vertex="1" parent="1">
          <mxGeometry x="351" y="337.25" width="415" height="35" as="geometry" />
        </mxCell>
        <mxCell id="IFULMocBADq7xV75yjAN-2" value="&lt;span style=&quot;color: rgb(25, 134, 57); font-family: monospace, monospace; caret-color: rgb(31, 31, 31); font-size: 16px; letter-spacing: 0.08px;&quot;&gt;&quot;A track written in&amp;nbsp;&lt;/span&gt;&lt;span style=&quot;font-family: monospace, monospace; caret-color: rgb(31, 31, 31); font-size: 16px; letter-spacing: 0.08px;&quot;&gt;&lt;font color=&quot;#ff001c&quot;&gt;[K1E2Y3] key&lt;/font&gt;&lt;/span&gt;&lt;span style=&quot;color: rgb(25, 134, 57); font-family: monospace, monospace; caret-color: rgb(31, 31, 31); font-size: 16px; letter-spacing: 0.08px;&quot;&gt;.&quot;&lt;/span&gt;" style="rounded=0;whiteSpace=wrap;html=1;align=center;verticalAlign=middle;dashed=1;strokeWidth=1;" vertex="1" parent="1">
          <mxGeometry x="350" y="430.25" width="415" height="35" as="geometry" />
        </mxCell>
        <mxCell id="IFULMocBADq7xV75yjAN-3" value="&lt;span style=&quot;color: rgb(25, 134, 57); font-family: monospace, monospace; caret-color: rgb(31, 31, 31); font-size: 16px; letter-spacing: 0.08px;&quot;&gt;&quot;Đoạn nhạc viết ở&amp;nbsp;&lt;/span&gt;&lt;span style=&quot;font-family: monospace, monospace; caret-color: rgb(31, 31, 31); font-size: 16px; letter-spacing: 0.08px;&quot;&gt;&lt;font color=&quot;#ff001c&quot;&gt;[K&lt;/font&gt;&lt;font color=&quot;#ff001c&quot;&gt;1E&lt;/font&gt;&lt;font color=&quot;#ff001c&quot;&gt;2Y&lt;/font&gt;&lt;font color=&quot;#ff001c&quot;&gt;3]&lt;/font&gt;&lt;font color=&quot;#ff001c&quot;&gt;&amp;nbsp;k&lt;/font&gt;&lt;font color=&quot;#ff001c&quot;&gt;ey&lt;/font&gt;&lt;/span&gt;&lt;span style=&quot;color: rgb(25, 134, 57); font-family: monospace, monospace; caret-color: rgb(31, 31, 31); font-size: 16px; letter-spacing: 0.08px;&quot;&gt;.&quot;&lt;/span&gt;" style="rounded=0;whiteSpace=wrap;html=1;align=center;verticalAlign=middle;dashed=1;strokeWidth=1;" vertex="1" parent="1">
          <mxGeometry x="351" y="650.25" width="415" height="35" as="geometry" />
        </mxCell>
        <mxCell id="IFULMocBADq7xV75yjAN-4" value="&lt;span style=&quot;color: rgb(25, 134, 57); font-family: monospace, monospace; caret-color: rgb(31, 31, 31); font-size: 16px; letter-spacing: 0.08px;&quot;&gt;&quot;Đoạn nhạc viết ở &lt;/span&gt;&lt;font style=&quot;caret-color: rgb(31, 31, 31); font-family: monospace, monospace; font-size: 16px; letter-spacing: 0.08px;&quot; color=&quot;#ff001c&quot;&gt;giọng&lt;/font&gt;&lt;font style=&quot;caret-color: rgb(31, 31, 31); font-family: monospace, monospace; font-size: 16px; letter-spacing: 0.08px;&quot; color=&quot;#ff001c&quot;&gt;&amp;nbsp;&lt;/font&gt;&lt;span style=&quot;font-family: monospace, monospace; caret-color: rgb(31, 31, 31); font-size: 16px; letter-spacing: 0.08px;&quot;&gt;&lt;font color=&quot;#ff001c&quot;&gt;[K&lt;/font&gt;&lt;font color=&quot;#ff001c&quot;&gt;E&lt;/font&gt;&lt;font color=&quot;#ff001c&quot;&gt;Y&lt;/font&gt;&lt;font color=&quot;#ff001c&quot;&gt;]&lt;/font&gt;&lt;/span&gt;&lt;span style=&quot;color: rgb(25, 134, 57); font-family: monospace, monospace; caret-color: rgb(31, 31, 31); font-size: 16px; letter-spacing: 0.08px;&quot;&gt;.&quot;&lt;/span&gt;" style="rounded=0;whiteSpace=wrap;html=1;align=center;verticalAlign=middle;dashed=1;strokeWidth=1;" vertex="1" parent="1">
          <mxGeometry x="350" y="777.75" width="415" height="35" as="geometry" />
        </mxCell>
        <mxCell id="IFULMocBADq7xV75yjAN-10" value="&lt;span style=&quot;color: rgb(25, 134, 57); font-family: monospace, monospace; caret-color: rgb(31, 31, 31); font-size: 16px; letter-spacing: 0.08px;&quot;&gt;&quot;Đoạn nhạc viết ở&amp;nbsp;&lt;/span&gt;&lt;span style=&quot;font-family: monospace, monospace; caret-color: rgb(31, 31, 31); font-size: 16px; letter-spacing: 0.08px;&quot;&gt;&lt;font color=&quot;#ff001c&quot;&gt;[[K&lt;/font&gt;&lt;font color=&quot;#0000ff&quot;&gt;0&lt;/font&gt;&lt;font color=&quot;#ff001c&quot;&gt;1E&lt;/font&gt;&lt;font color=&quot;#0000ff&quot;&gt;1&lt;/font&gt;&lt;font color=&quot;#ff001c&quot;&gt;2Y&lt;/font&gt;&lt;font color=&quot;#0000ff&quot;&gt;2&lt;/font&gt;&lt;font color=&quot;#ff001c&quot;&gt;3]&lt;/font&gt;&lt;font color=&quot;#0000ff&quot;&gt;3&lt;/font&gt;&lt;font color=&quot;#ff001c&quot;&gt;&amp;nbsp;k&lt;/font&gt;&lt;font color=&quot;#0000ff&quot;&gt;4&lt;/font&gt;&lt;font color=&quot;#ff001c&quot;&gt;ey&lt;/font&gt;&lt;font color=&quot;#0000ff&quot;&gt;5&lt;/font&gt;&lt;font color=&quot;#ff001c&quot;&gt;]&lt;/font&gt;&lt;/span&gt;&lt;span style=&quot;color: rgb(25, 134, 57); font-family: monospace, monospace; caret-color: rgb(31, 31, 31); font-size: 16px; letter-spacing: 0.08px;&quot;&gt;.&quot;&lt;/span&gt;" style="rounded=0;whiteSpace=wrap;html=1;align=center;verticalAlign=middle;dashed=1;strokeWidth=1;" vertex="1" parent="1">
          <mxGeometry x="350" y="557.25" width="415" height="35" as="geometry" />
        </mxCell>
        <mxCell id="IFULMocBADq7xV75yjAN-11" value="&lt;span style=&quot;color: rgb(25, 134, 57); font-family: monospace, monospace; caret-color: rgb(31, 31, 31); font-size: 16px; letter-spacing: 0.08px;&quot;&gt;&quot;A track written in &lt;/span&gt;&lt;span style=&quot;font-family: monospace, monospace; caret-color: rgb(31, 31, 31); font-size: 16px; letter-spacing: 0.08px;&quot;&gt;&lt;font color=&quot;#ff001c&quot;&gt;[[K&lt;/font&gt;&lt;font color=&quot;#0000ff&quot;&gt;0&lt;/font&gt;&lt;font color=&quot;#ff001c&quot;&gt;1E&lt;/font&gt;&lt;font color=&quot;#0000ff&quot;&gt;1&lt;/font&gt;&lt;font color=&quot;#ff001c&quot;&gt;2Y&lt;/font&gt;&lt;font color=&quot;#0000ff&quot;&gt;2&lt;/font&gt;&lt;font color=&quot;#ff001c&quot;&gt;3]&lt;/font&gt;&lt;font color=&quot;#0000ff&quot;&gt;3&lt;/font&gt;&lt;font color=&quot;#ff001c&quot;&gt; k&lt;/font&gt;&lt;font color=&quot;#0000ff&quot;&gt;4&lt;/font&gt;&lt;font color=&quot;#ff001c&quot;&gt;ey&lt;/font&gt;&lt;font color=&quot;#0000ff&quot;&gt;5&lt;/font&gt;&lt;font color=&quot;#ff001c&quot;&gt;]&lt;/font&gt;&lt;/span&gt;&lt;span style=&quot;color: rgb(25, 134, 57); font-family: monospace, monospace; caret-color: rgb(31, 31, 31); font-size: 16px; letter-spacing: 0.08px;&quot;&gt;.&quot;&lt;/span&gt;" style="rounded=0;whiteSpace=wrap;html=1;align=center;verticalAlign=middle;dashed=1;strokeWidth=1;" vertex="1" parent="1">
          <mxGeometry x="350" y="465.25" width="415" height="35" as="geometry" />
        </mxCell>
        <mxCell id="IFULMocBADq7xV75yjAN-12" value="&lt;span style=&quot;color: rgb(25, 134, 57); font-family: monospace, monospace; caret-color: rgb(31, 31, 31); font-size: 16px; letter-spacing: 0.08px;&quot;&gt;&quot;Đoạn nhạc viết ở&amp;nbsp;&lt;/span&gt;&lt;span style=&quot;font-family: monospace, monospace; caret-color: rgb(31, 31, 31); font-size: 16px; letter-spacing: 0.08px;&quot;&gt;&lt;font color=&quot;#ff001c&quot;&gt;[K&lt;/font&gt;&lt;font color=&quot;#ff001c&quot;&gt;E&lt;/font&gt;&lt;font color=&quot;#ff001c&quot;&gt;Y&lt;/font&gt;&lt;font color=&quot;#ff001c&quot;&gt;]&lt;/font&gt;&lt;font color=&quot;#ff001c&quot;&gt;&amp;nbsp;k&lt;/font&gt;&lt;font color=&quot;#ff001c&quot;&gt;ey&lt;/font&gt;&lt;/span&gt;&lt;span style=&quot;color: rgb(25, 134, 57); font-family: monospace, monospace; caret-color: rgb(31, 31, 31); font-size: 16px; letter-spacing: 0.08px;&quot;&gt;.&quot;&lt;/span&gt;" style="rounded=0;whiteSpace=wrap;html=1;align=center;verticalAlign=middle;dashed=1;strokeWidth=1;" vertex="1" parent="1">
          <mxGeometry x="351" y="685.25" width="415" height="35" as="geometry" />
        </mxCell>
      </root>
    </mxGraphModel>
  </diagram>
</mxfile>
